<?xml version="1.0" standalone="no"?>
<!DOCTYPE svg PUBLIC "-//W3C//DTD SVG 20010904//EN"
 "http://www.w3.org/TR/2001/REC-SVG-20010904/DTD/svg10.dtd">
<svg version="1.0" xmlns="http://www.w3.org/2000/svg"
 width="740.000000pt" height="828.000000pt" viewBox="0 0 740.000000 828.000000"
 preserveAspectRatio="xMidYMid meet">

<g transform="translate(0.000000,828.000000) scale(0.100000,-0.100000)"
fill="#000000" stroke="none">
<path d="M3350 7720 c-191 -14 -484 -109 -654 -213 -244 -148 -459 -399 -537
-624 -31 -90 -55 -246 -79 -508 -5 -55 -19 -190 -31 -300 -11 -110 -25 -238
-29 -285 -5 -47 -14 -121 -20 -165 -6 -44 -15 -116 -20 -161 -8 -79 -17 -137
-26 -182 -4 -26 -1 -26 -139 4 -79 18 -149 42 -345 119 -240 94 -264 103 -311
110 -41 5 -51 3 -75 -19 -25 -21 -29 -31 -28 -73 1 -67 51 -142 157 -231 137
-115 212 -161 502 -308 226 -114 210 -95 181 -222 -18 -84 -21 -259 -6 -348
10 -54 33 -169 62 -300 6 -31 8 -88 4 -140 -3 -49 -9 -188 -12 -310 -6 -204
-5 -229 16 -325 12 -57 34 -133 49 -169 42 -98 43 -107 26 -282 -22 -226 -14
-293 69 -578 67 -228 80 -262 130 -344 48 -78 89 -124 224 -250 34 -32 62 -62
62 -68 0 -20 -41 -87 -82 -134 -59 -67 -149 -179 -238 -299 -105 -140 -168
-202 -298 -294 -64 -46 -108 -83 -100 -86 278 -96 829 -209 895 -184 13 5 70
53 126 107 119 114 173 144 269 150 l67 4 120 -116 c162 -157 191 -172 275
-147 17 6 69 19 116 31 313 77 630 201 1008 395 234 120 424 243 622 402 134
108 372 330 391 365 8 15 -9 38 -108 141 -192 199 -231 235 -262 242 -54 12
-78 40 -86 97 -12 90 -35 171 -62 213 l-26 39 22 87 c11 48 28 136 36 195 13
91 21 118 49 164 19 30 42 75 51 100 10 25 31 78 47 118 16 41 27 80 24 88 -3
8 -2 13 3 10 5 -3 11 3 14 14 3 11 1 18 -4 14 -5 -3 -6 2 -3 10 3 9 10 16 14
16 11 0 35 61 91 235 55 168 89 318 89 394 0 52 -2 60 -45 241 -14 58 -25 115
-25 126 0 25 30 41 234 129 370 160 556 342 556 545 0 80 -27 138 -96 208
-184 184 -547 230 -1199 152 -44 -5 -100 -12 -125 -15 -25 -3 -76 -9 -115 -15
-76 -10 -128 -15 -310 -30 -66 -5 -169 -14 -230 -20 -116 -11 -302 -25 -545
-41 -256 -17 -939 -23 -1135 -10 -288 19 -435 43 -435 70 0 13 129 20 455 26
165 3 354 8 420 10 150 7 368 13 503 14 61 1 102 5 102 11 0 6 -20 10 -44 10
-24 0 -66 4 -94 10 -135 25 -331 40 -1147 88 -103 6 -120 9 -123 25 -3 13 4
17 30 17 18 0 49 4 68 9 19 5 125 12 235 15 224 6 575 21 830 35 94 5 184 9
200 9 81 -1 69 6 -50 28 -271 50 -570 74 -942 74 -264 0 -313 2 -313 14 0 8
15 19 33 25 58 18 210 43 297 48 47 2 101 10 120 16 74 24 833 -1 1107 -38 59
-7 128 -17 153 -20 47 -6 63 -9 280 -50 221 -42 505 -123 505 -144 0 -17 -94
-21 -112 -5 -10 9 -232 29 -239 21 -2 -2 41 -13 94 -26 53 -13 105 -27 114
-32 10 -5 24 -9 32 -9 19 0 31 -19 19 -31 -4 -4 -131 -10 -280 -11 -150 -2
-269 -6 -265 -9 12 -11 312 -48 437 -55 153 -8 287 -6 296 3 4 5 3 66 -3 136
-5 71 -7 131 -3 135 6 7 81 -17 155 -51 25 -11 65 -28 90 -39 25 -11 86 -39
135 -63 90 -43 202 -79 209 -67 12 21 18 103 31 437 25 632 19 781 -40 954
-153 450 -778 866 -1395 930 -140 14 -529 21 -660 11z m1595 -2875 c185 -12
330 -50 388 -103 34 -30 69 -113 87 -207 20 -95 29 -310 14 -310 -5 0 -23 4
-41 8 -20 5 -40 4 -53 -3 -30 -16 -64 -95 -95 -217 -24 -95 -25 -116 -23 -290
l3 -188 -28 -52 c-29 -56 -33 -68 -17 -58 6 3 10 -1 10 -9 0 -25 -4 -31 -20
-31 -17 0 -27 -62 -12 -77 16 -16 50 24 111 132 69 123 113 242 141 380 34
169 24 239 -46 311 -31 32 -33 37 -19 49 24 20 92 -30 118 -88 26 -59 34 -202
17 -310 -11 -75 -98 -348 -147 -466 -13 -32 -22 -64 -19 -72 3 -7 -1 -17 -8
-21 -8 -5 -25 -33 -39 -63 -33 -72 -82 -138 -112 -152 -21 -9 -35 -5 -103 34
-60 34 -78 41 -75 27 3 -9 13 -19 24 -22 11 -3 20 -15 20 -29 1 -12 3 -43 4
-68 2 -25 13 -101 24 -169 15 -83 18 -128 12 -134 -7 -7 -12 -4 -17 9 -3 10
-26 60 -50 109 -71 145 -98 166 -67 54 13 -46 18 -101 18 -195 l0 -131 -48
-96 c-78 -158 -97 -162 -97 -22 0 93 -5 125 -20 125 -4 0 -11 -12 -14 -27 -4
-16 -13 -41 -21 -58 -8 -16 -39 -84 -69 -150 -29 -65 -58 -121 -63 -122 -6 -2
-13 51 -16 129 -8 160 -34 293 -75 373 l-29 59 5 -143 c5 -156 -4 -233 -45
-366 -28 -90 -121 -305 -133 -305 -4 0 -10 15 -14 33 -19 101 -52 227 -58 227
-8 0 -13 -16 -29 -109 -14 -88 -49 -175 -99 -255 -60 -94 -73 -88 -71 34 l2
95 -49 -75 c-27 -41 -71 -96 -98 -122 -54 -52 -183 -140 -195 -132 -4 2 10 38
32 79 21 41 39 87 39 101 0 24 -8 19 -87 -57 -136 -128 -223 -192 -223 -163 0
3 7 37 17 75 16 66 12 102 -8 68 -18 -34 -142 -181 -155 -186 -22 -8 -23 -4
-15 68 10 94 0 110 -43 70 -12 -10 -33 -26 -48 -36 l-27 -17 -92 87 c-50 48
-95 83 -99 78 -5 -4 -4 -28 1 -53 20 -96 22 -120 9 -120 -39 0 -152 72 -230
146 -47 45 -92 83 -100 86 -18 6 -40 -14 -40 -36 0 -9 -6 -16 -14 -16 -21 0
-69 59 -116 146 -24 44 -58 101 -77 129 l-33 50 0 -87 c0 -70 -3 -86 -14 -82
-19 7 -57 83 -97 192 -18 50 -37 92 -40 92 -4 0 -13 -16 -19 -35 -12 -35 -23
-44 -35 -25 -24 39 -49 603 -29 654 12 31 31 16 37 -28 10 -74 46 -163 130
-330 l81 -160 18 82 c21 95 42 152 57 152 6 0 11 -9 11 -20 0 -21 55 -126 70
-135 5 -3 9 25 8 63 -1 134 53 248 144 305 57 36 94 54 175 86 29 11 96 42
150 69 128 64 141 67 200 41 63 -28 223 -80 348 -114 162 -44 323 -93 346
-106 82 -43 163 -168 192 -293 8 -38 16 -53 24 -48 24 15 56 107 61 174 14
195 -101 305 -373 358 -33 6 -73 15 -90 20 -16 4 -57 13 -90 20 -144 30 -271
62 -295 75 -37 19 -74 71 -96 134 l-19 53 45 40 c73 66 128 88 212 88 54 0 81
5 104 19 39 24 97 95 117 144 9 20 20 37 24 37 4 0 27 -39 51 -87 54 -112 154
-235 295 -365 61 -57 137 -129 169 -160 31 -32 59 -58 62 -58 11 0 6 62 -10
123 -18 71 -45 107 -209 277 -60 64 -153 165 -205 225 -222 254 -235 268 -291
299 -55 30 -56 30 -113 16 -43 -10 -64 -22 -87 -48 -17 -19 -28 -36 -25 -39 3
-3 28 4 57 16 62 27 115 22 160 -16 72 -61 96 -181 46 -231 -28 -28 -50 -30
-145 -11 l-63 12 -106 -54 c-87 -43 -118 -54 -169 -57 -54 -4 -69 0 -114 24
-29 16 -71 50 -95 76 -24 26 -48 48 -54 48 -5 0 -18 -16 -27 -35 -16 -34 -24
-39 -54 -35 -24 3 -57 39 -63 70 -9 44 12 102 51 138 31 30 41 33 74 29 21 -3
40 -2 42 2 2 3 7 44 11 91 l8 85 -22 -27 c-14 -18 -32 -28 -48 -28 -24 0 -25
3 -20 35 6 39 65 127 81 122 6 -2 13 -17 15 -33 2 -20 9 -2 22 61 24 115 24
153 -1 217 -11 29 -20 54 -20 54 0 1 14 19 31 40 34 43 60 100 99 213 24 73
50 104 50 61 0 -33 51 -181 76 -222 13 -20 48 -53 78 -72 51 -35 60 -48 82
-120 7 -24 22 -35 74 -57 36 -15 92 -49 125 -76 91 -75 313 -221 380 -251 38
-17 205 -29 205 -15 0 6 -24 18 -52 28 -127 41 -346 178 -370 231 -14 29 -14
29 65 75 36 22 46 34 51 63 8 43 15 44 46 12 29 -32 102 -66 139 -66 30 0 111
38 111 52 0 4 9 8 20 8 32 0 23 -25 -20 -55 -47 -33 -46 -42 4 -25 67 22 116
16 199 -23 42 -20 81 -37 87 -37 5 0 26 11 47 25 43 27 84 59 66 50 -7 -3 -13
0 -13 8 0 11 -204 153 -265 184 -11 6 -74 13 -140 17 -336 18 -391 19 -498 6
-111 -12 -113 -12 -168 13 -58 26 -99 61 -99 85 0 16 19 14 105 -10 43 -13 58
-12 109 0 54 14 70 14 164 -1 58 -10 107 -16 109 -13 2 2 -13 10 -35 19 -49
20 -70 43 -53 60 17 17 225 22 271 7 19 -6 60 -10 90 -8 l55 3 -63 35 c-34 19
-61 39 -59 45 6 18 275 3 380 -21 58 -13 23 15 -83 66 -115 55 -165 92 -157
114 3 7 34 18 69 25 34 7 99 21 143 31 44 11 96 21 115 23 19 3 73 12 120 21
131 25 120 30 168 -84 65 -154 72 -192 78 -410 4 -142 11 -217 25 -277 44
-187 34 -302 -45 -548 -25 -77 -43 -141 -41 -144 7 -6 54 28 86 62 16 18 49
73 74 122 72 148 96 276 75 405 -7 41 -13 174 -15 295 -2 201 -4 224 -23 269
-28 61 -144 224 -211 295 -55 57 -57 76 -7 67 17 -2 76 -8 131 -11z m-2735
-368 c0 -7 -9 -23 -21 -36 -26 -28 -19 -38 13 -17 30 19 166 53 232 58 55 3
71 -12 31 -30 -14 -6 -25 -16 -25 -21 0 -14 144 -31 248 -30 91 1 122 -7 108
-30 -14 -22 -219 -71 -298 -71 -59 0 -175 -26 -208 -47 -14 -9 -60 -50 -102
-91 -42 -41 -81 -71 -86 -68 -17 11 -35 136 -29 203 7 73 18 94 79 153 44 42
58 49 58 27z m767 -54 c-7 -38 -41 -83 -54 -70 -7 8 13 74 29 95 20 24 31 13
25 -25z m-244 -308 c6 -11 13 -27 17 -35 4 -8 17 -16 29 -18 34 -5 25 -35 -26
-83 -148 -137 -224 -189 -278 -189 -46 1 -110 34 -155 81 -57 60 -55 97 6 164
25 28 53 60 61 73 19 28 28 28 64 -2 43 -37 97 -42 158 -16 28 12 56 29 62 37
16 19 50 13 62 -12z m-527 -225 c15 -51 85 -145 139 -186 35 -26 39 -27 80
-16 55 15 191 95 273 161 35 28 78 59 94 67 l31 16 -6 -34 c-8 -52 -87 -214
-163 -335 -136 -217 -273 -429 -295 -457 l-23 -29 -52 56 c-66 70 -172 230
-216 322 -31 67 -32 75 -32 191 1 150 15 205 66 256 54 54 86 50 104 -12z
m627 -634 c26 -10 47 -22 45 -26 -2 -4 -45 -51 -95 -104 -51 -53 -100 -108
-109 -121 -42 -64 28 -23 81 48 35 45 49 47 43 8 -4 -25 -2 -28 11 -21 9 4 27
20 41 35 53 58 163 146 171 138 5 -5 3 -46 -5 -93 -8 -47 -12 -87 -10 -89 3
-3 37 31 77 74 71 76 97 88 97 46 0 -9 4 -21 9 -26 12 -14 41 -117 35 -127 -3
-4 -40 -8 -82 -9 -210 -1 -520 -75 -629 -150 -51 -36 -95 -107 -119 -196 -10
-35 -22 -62 -28 -60 -16 5 -34 84 -35 153 -2 104 18 146 168 361 77 109 151
215 165 236 l26 37 48 -48 c27 -27 68 -55 95 -66z m2280 -972 c13 -60 3 -194
-17 -233 -23 -44 -92 -119 -367 -396 -554 -561 -873 -870 -877 -852 -2 10 13
36 37 63 91 103 145 237 139 342 -5 89 -40 143 -120 186 -32 17 -56 35 -55 41
2 5 30 20 63 33 353 140 722 395 1016 703 84 87 157 157 163 156 5 -2 13 -21
18 -43z m-2408 -821 c33 -37 111 -118 173 -181 61 -62 112 -119 112 -127 0
-36 -60 -8 -160 75 -59 49 -126 90 -145 90 -40 0 -65 -165 -65 -421 0 -120 -3
-149 -14 -149 -7 0 -16 10 -20 23 -15 55 1 696 19 745 10 27 43 9 100 -55z
m970 -113 c-4 -6 -25 -20 -48 -31 -23 -12 -85 -52 -137 -89 -121 -86 -153
-103 -169 -87 -19 19 -12 43 21 76 48 47 165 111 222 122 27 5 52 11 54 14 10
10 63 5 57 -5z"/>
<path d="M3496 3104 c31 -40 114 -107 122 -99 6 6 -129 135 -141 135 -4 0 4
-16 19 -36z"/>
<path d="M3669 3095 c30 -40 143 -135 159 -135 31 0 -1 35 -98 107 -77 56 -88
61 -61 28z"/>
<path d="M2620 1888 c0 -18 18 -34 28 -24 3 4 -2 14 -11 23 -16 16 -17 16 -17
1z"/>
</g>
</svg>
